PathFileType	4	(X/Y/Z)	W12_1_OpenSim.trc																																																																																																				
DataRate	CameraRate	NumFrames	NumMarkers	Units	OrigDataRate	OrigDataStartFrame	OrigNumFrames																																																																																																
100	100	7	34	mm	100	2592	2962																																																																																																
Frame#	Time	R.ASIS			R.PSIS			S2			L.PSIS			L.ASIS			R.TH1			R.TH2			R.TH3			R.Knee			R.SH1			R.SH2			R.SH3			R.SH4			R.Ankle			R.RFoot			R.Heel			R.MT5			R.MT1			L.TH1			L.TH2			L.TH3			L.TH4			L.Knee			L.SH1			L.SH2			L.SH3			L.Ankle			L.RFoot			L.Heel			L.MT5			L.MT1			T.Top			T.Lat			T.Bot		
		X1	Y1	Z1	X2	Y2	Z2	X3	Y3	Z3	X4	Y4	Z4	X5	Y5	Z5	X6	Y6	Z6	X7	Y7	Z7	X8	Y8	Z8	X9	Y9	Z9	X10	Y10	Z10	X11	Y11	Z11	X12	Y12	Z12	X13	Y13	Z13	X14	Y14	Z14	X15	Y15	Z15	X16	Y16	Z16	X17	Y17	Z17	X18	Y18	Z18	X19	Y19	Z19	X20	Y20	Z20	X21	Y21	Z21	X22	Y22	Z22	X23	Y23	Z23	X24	Y24	Z24	X25	Y25	Z25	X26	Y26	Z26	X27	Y27	Z27	X28	Y28	Z28	X29	Y29	Z29	X30	Y30	Z30	X31	Y31	Z31	X32	Y32	Z32	X33	Y33	Z33	X34	Y34	Z34
2592	25.91	1058.7648	975.9163	-449.4487	852.837	1014.9866	-496.2779	841.4412	1010.0438	-547.0698	850.9657	1018.1319	-598.524	1052.4753	976.3149	-685.2154	1085.7263	723.5306	-389.105	1008.6482	696.2751	-385.2308	1045.994	592.1464	-397.5694	1105.2362	478.9934	-415.436	1148.6616	403.2351	-402.2115	1182.8716	295.5464	-394.4985	1070.6301	378.9288	-417.06	1103.8807	273.4401	-401.1252	1230.307	82.6099	-430.2384	1278.0521	49.9799	-417.2655	1199.5344	36.7632	-487.8736	1360.3514	72.9638	-392.9572	1398.3643	105.8411	-471.9768	993.1037	692.6738	-708.9748	960.7336	589.4059	-706.4664	918.0267	711.3347	-739.0195	885.7419	605.968	-728.3677	857.555	481.441	-702.8709	834.0152	357.2993	-702.2594	755.8925	386.6029	-718.5345	718.5013	283.8292	-701.9188	682.0262	101.3116	-664.1879	705.9213	38.0764	-666.8247	625.5807	90.2956	-617.895	786.9292	15.459	-684.0948	823.0867	26.5792	-593.1244	1039.4519	311.7654	-455.4751	1030.6942	310.0936	-492.9875	1063.7258	281.8487	-474.0139
2593	25.92	1059.228	974.2141	-448.6021	853.5115	1013.6022	-495.1849	842.0206	1008.2419	-545.7642	851.406	1016.4182	-597.0565	1052.5709	974.9237	-684.5061	1088.8281	724.0638	-388.7629	1011.4082	695.1133	-384.6594	1049.3976	591.3959	-397.6621	1108.8064	478.3292	-416.1843	1152.1404	402.0456	-403.4644	1184.9464	294.0867	-395.9448	1073.5582	378.5158	-417.4231	1105.7695	272.631	-402.0351	1229.3772	80.2805	-431.8784	1277.0624	47.6756	-419.4238	1197.626	34.9053	-489.2322	1359.5934	69.7777	-396.2741	1397.1857	101.7671	-475.8487	992.2532	691.8328	-709.8051	959.1324	588.0782	-706.4454	917.4911	710.5956	-737.4897	884.2691	605.1721	-728.1954	855.196	480.763	-703.3855	829.4808	356.9071	-702.5284	751.6719	387.8047	-719.0493	712.3242	285.7725	-702.5858	672.1365	104.1718	-665.1854	694.7388	40.1723	-667.644	615.4196	94.0748	-619.2637	775.9092	15.6153	-684.2466	810.2465	27.2872	-591.9986	1042.1747	311.8743	-455.8238	1032.7511	310.0396	-493.1607	1065.3564	281.5461	-474.5517
2594	25.93	1060.0282	972.6964	-447.6283	854.1521	1011.7338	-493.9521	842.6097	1006.6623	-544.4162	851.6841	1014.8365	-595.887	1052.8922	973.4409	-683.6199	1091.811	723.7395	-388.6106	1015.5819	694.0861	-384.3172	1053.3658	591.0151	-398.1546	1112.7805	477.8338	-417.0985	1155.4208	400.4323	-404.9392	1186.4702	291.9423	-397.788	1076.4684	378.6	-418.1849	1106.9686	271.6888	-403.264	1226.312	77.4545	-433.5795	1273.5593	44.6078	-421.7881	1192.8456	32.4332	-490.2599	1356.5758	65.2369	-399.7489	1393.7454	95.9343	-480.1008	991.2715	690.295	-708.4844	957.9484	586.7923	-706.2201	916.63	709.3815	-737.7682	883.1576	604.3715	-728.0196	853.3755	479.8955	-703.2299	825.272	356.2895	-702.899	748.4147	388.8756	-719.4308	706.4452	287.7366	-703.2469	662.2714	107.1336	-666.1343	683.7983	42.3743	-668.4026	605.2129	98.3338	-620.4563	762.9987	15.9425	-684.1686	798.2218	27.3227	-592.5691	1040.0673	311.2206	-456.037	1033.2908	311.031	-493.1982	1065.9701	281.9985	-474.7387
2595	25.94	1061.2793	971.3471	-446.5738	855.3707	1010.1892	-492.5989	843.6714	1004.8201	-543.0729	852.7224	1013.2726	-594.5425	1053.6952	972.1772	-682.7039	1095.1215	723.4304	-388.2818	1018.2701	693.4704	-384.1663	1057.4004	590.4564	-398.781	1116.739	477.2907	-417.9367	1158.4255	398.4667	-406.3039	1186.7719	289.2331	-399.3495	1078.613	378.6792	-418.4035	1106.7955	271.1877	-403.7874	1220.8884	73.7992	-435.5915	1267.4984	39.7106	-424.3811	1185.751	29.478	-491.6046	1351.1529	59.4228	-403.4818	1387.9609	88.8847	-484.4113	990.8723	688.9243	-708.1366	957.4143	585.6578	-706.1929	915.2928	708.5336	-738.4758	882.5764	603.3496	-727.6438	852.2037	479.0118	-703.6609	821.6441	355.721	-703.1049	745.6633	390.0318	-719.7711	701.4551	289.7897	-704.0321	652.7457	110.2272	-667.0001	672.829	44.8949	-669.102	595.74	102.9635	-621.408	751.3229	16.2899	-684.2799	786.4704	27.4173	-592.861	1041.8491	312.5905	-456.0591	1033.2335	312.0516	-493.2521	1064.6276	282.5537	-474.864
2596	25.95	1062.8453	969.9301	-445.5785	856.8652	1008.2925	-491.0983	844.9533	1003.1802	-541.6822	853.8419	1011.5926	-593.0485	1054.7284	970.9888	-681.6327	1098.3591	723.0193	-388.2764	1021.5698	692.3693	-383.7697	1061.266	590.0453	-399.4599	1120.5381	476.5396	-418.5874	1161.0166	396.2635	-407.3709	1186.3154	285.951	-401.1934	1080.3357	378.4565	-418.4917	1105.8452	270.9838	-404.331	1213.7421	69.9436	-437.7932	1259.4861	35.0608	-427.1795	1176.6421	26.6949	-493.2411	1343.9471	52.5459	-407.3803	1380.1686	80.9843	-488.9426	991.2805	687.6714	-707.7378	957.4118	584.4305	-705.9921	915.3341	707.6306	-737.8354	882.7319	602.1931	-727.4625	851.8378	477.8846	-703.7867	818.5221	355.1737	-703.3223	743.0602	391.3512	-719.9219	696.8385	292.0623	-704.4753	643.9	113.4716	-667.8398	662.1808	47.3894	-669.7593	586.5499	108.0123	-622.3064	739.6977	16.4915	-684.1312	774.8991	27.3988	-593.233	1040.9674	313.7443	-455.5258	1031.9885	313.277	-492.4603	1063.2675	283.3597	-474.7935
2597	25.96	1065.3379	969.4042	-444.5268	858.5024	1006.4965	-489.4222	846.5344	1001.4357	-540.0487	855.3184	1010.1147	-591.4577	1055.1549	969.4175	-681.5201	1101.4705	722.3071	-388.1203	1024.83	691.1539	-384.1937	1064.7457	589.212	-400.1792	1123.8356	475.1963	-419.2809	1162.733	393.3717	-409.0112	1184.9409	282.5725	-403.0231	1081.0392	378.3068	-418.7685	1103.6531	268.6028	-404.9424	1205.5947	66.0622	-439.7565	1249.8899	30.6115	-429.948	1165.9316	24.4969	-494.195	1335.1132	45.7104	-411.6583	1371.1385	72.3185	-494.1056	991.855	686.3514	-706.6188	958.0323	583.0117	-706.0374	915.7954	706.5175	-737.3276	883.2057	601.212	-727.1832	852.0671	476.6799	-703.5963	815.8456	354.5992	-703.702	741.0832	392.525	-720.1865	692.9157	294.5092	-705.1109	635.1751	117.3716	-668.6213	651.693	50.533	-670.236	577.8948	113.54	-623.0079	727.5886	16.8651	-684.2518	762.9973	27.7117	-593.1703	1040.0167	314.7106	-455.0565	1030.2606	314.8091	-491.7542	1060.0077	283.3696	-474.9319
2598	25.97	1067.7499	968.3705	-443.5523	860.5854	1004.7033	-487.6072	848.4787	999.7985	-538.2668	856.9984	1008.1489	-589.8437	1056.8882	968.3928	-680.3618	1104.4354	720.8588	-387.7142	1027.8837	690.0613	-384.0146	1067.3185	587.8187	-400.6494	1126.3637	473.5929	-419.7992	1163.8164	390.5467	-410.423	1183.3584	279.4613	-405.2254	1081.1654	378.5524	-419.4581	1101.8328	268.2396	-405.554	1197.4713	64.7752	-441.3979	1239.9246	26.8071	-432.0765	1154.885	23.8023	-494.6933	1326.5629	37.0815	-416.0913	1362.3655	61.3994	-499.5119	992.963	685.2593	-706.7786	959.2316	581.8657	-705.9388	916.9095	705.4022	-736.5145	884.5352	599.85	-726.8353	852.931	475.437	-704.1201	813.7589	354.216	-704.3746	740.1848	394.0958	-720.3321	689.4038	297.1113	-705.5933	625.845	121.763	-669.8383	641.3033	53.9368	-670.7336	569.6087	119.6658	-623.9852	716.0184	17.3998	-684.3516	751.1835	27.7468	-593.2937	1038.0615	315.47	-454.501	1027.8754	316.2123	-491.2165	1056.7274	284.1612	-474.589
